<svg width="42" height="56" viewBox="0 0 42 56" fill="none" xmlns="http://www.w3.org/2000/svg">
<path d="M35.581 31.2901C33.747 35.0071 31.262 38.7101 28.721 42.0351C26.3105 45.1697 23.7331 48.1724 21 51.0301C18.2668 48.1724 15.6894 45.1698 13.279 42.0351C10.738 38.7101 8.253 35.0071 6.419 31.2901C4.564 27.5346 3.5 24.0171 3.5 21.0001C3.5 16.3588 5.34374 11.9076 8.62563 8.62569C11.9075 5.34381 16.3587 3.50006 21 3.50006C25.6413 3.50006 30.0925 5.34381 33.3744 8.62569C36.6563 11.9076 38.5 16.3588 38.5 21.0001C38.5 24.0171 37.4325 27.5346 35.581 31.2901ZM21 56.0001C21 56.0001 42 36.0991 42 21.0001C42 15.4305 39.7875 10.0891 35.8492 6.15082C31.911 2.21255 26.5695 6.10352e-05 21 6.10352e-05C15.4305 6.10352e-05 10.089 2.21255 6.15076 6.15082C2.21249 10.0891 8.29927e-08 15.4305 0 21.0001C0 36.0991 21 56.0001 21 56.0001Z" fill="black"/>
<path d="M21 28.0001C19.1435 28.0001 17.363 27.2626 16.0503 25.9498C14.7375 24.6371 14 22.8566 14 21.0001C14 19.1435 14.7375 17.3631 16.0503 16.0503C17.363 14.7376 19.1435 14.0001 21 14.0001C22.8565 14.0001 24.637 14.7376 25.9497 16.0503C27.2625 17.3631 28 19.1435 28 21.0001C28 22.8566 27.2625 24.6371 25.9497 25.9498C24.637 27.2626 22.8565 28.0001 21 28.0001ZM21 31.5001C23.7848 31.5001 26.4555 30.3938 28.4246 28.4247C30.3938 26.4556 31.5 23.7848 31.5 21.0001C31.5 18.2153 30.3938 15.5446 28.4246 13.5754C26.4555 11.6063 23.7848 10.5001 21 10.5001C18.2152 10.5001 15.5445 11.6063 13.5754 13.5754C11.6062 15.5446 10.5 18.2153 10.5 21.0001C10.5 23.7848 11.6062 26.4556 13.5754 28.4247C15.5445 30.3938 18.2152 31.5001 21 31.5001Z" fill="black"/>
</svg>
