<svg width="66" height="49" viewBox="0 0 66 49" fill="none" xmlns="http://www.w3.org/2000/svg">
<path d="M61.875 49.0001C61.875 49.0001 66 49.0001 66 44.9167C66 40.8334 61.875 28.5834 45.375 28.5834C28.875 28.5834 24.75 40.8334 24.75 44.9167C24.75 49.0001 28.875 49.0001 28.875 49.0001H61.875ZM28.9657 44.9167C28.9353 44.9126 28.905 44.9071 28.875 44.9004C28.8791 43.8224 29.5639 40.6946 32.01 37.8771C34.287 35.2351 38.2882 32.6667 45.375 32.6667C52.4576 32.6667 56.4589 35.2392 58.74 37.8771C61.1861 40.6946 61.8667 43.8265 61.875 44.9004L61.842 44.9086C61.8228 44.9118 61.8036 44.9145 61.7842 44.9167H28.9657ZM45.375 20.4167C47.563 20.4167 49.6615 19.5563 51.2086 18.0248C52.7558 16.4932 53.625 14.416 53.625 12.2501C53.625 10.0841 52.7558 8.0069 51.2086 6.47536C49.6615 4.94381 47.563 4.08339 45.375 4.08339C43.187 4.08339 41.0885 4.94381 39.5414 6.47536C37.9942 8.0069 37.125 10.0841 37.125 12.2501C37.125 14.416 37.9942 16.4932 39.5414 18.0248C41.0885 19.5563 43.187 20.4167 45.375 20.4167ZM57.75 12.2501C57.75 13.8588 57.4299 15.4517 56.808 16.9379C56.1861 18.4242 55.2746 19.7746 54.1254 20.9121C52.9763 22.0496 51.6121 22.952 50.1107 23.5676C48.6093 24.1832 47.0001 24.5001 45.375 24.5001C43.7499 24.5001 42.1407 24.1832 40.6393 23.5676C39.1379 22.952 37.7737 22.0496 36.6246 20.9121C35.4754 19.7746 34.5639 18.4242 33.942 16.9379C33.3201 15.4517 33 13.8588 33 12.2501C33 9.00116 34.3038 5.88532 36.6246 3.588C38.9453 1.29068 42.0929 6.10352e-05 45.375 6.10352e-05C48.6571 6.10352e-05 51.8047 1.29068 54.1254 3.588C56.4462 5.88532 57.75 9.00116 57.75 12.2501ZM28.611 29.7267C26.9609 29.2124 25.26 28.8743 23.5372 28.7181C22.5692 28.627 21.5974 28.5821 20.625 28.5834C4.125 28.5834 0 40.8334 0 44.9167C0 47.6403 1.37363 49.0001 4.125 49.0001H21.516C20.9045 47.7253 20.5995 46.3277 20.625 44.9167C20.625 40.7926 22.1801 36.5786 25.1213 33.0587C26.1236 31.8582 27.291 30.7353 28.611 29.7267ZM20.295 32.6667C17.8536 36.2979 16.5348 40.555 16.5 44.9167H4.125C4.125 43.8551 4.8015 40.7109 7.26 37.8771C9.50813 35.2801 13.4145 32.7484 20.295 32.6708V32.6667ZM6.1875 14.2917C6.1875 11.0428 7.49129 7.92699 9.81205 5.62967C12.1328 3.33235 15.2804 2.04173 18.5625 2.04173C21.8446 2.04173 24.9922 3.33235 27.3129 5.62967C29.6337 7.92699 30.9375 11.0428 30.9375 14.2917C30.9375 17.5406 29.6337 20.6565 27.3129 22.9538C24.9922 25.2511 21.8446 26.5417 18.5625 26.5417C15.2804 26.5417 12.1328 25.2511 9.81205 22.9538C7.49129 20.6565 6.1875 17.5406 6.1875 14.2917ZM18.5625 6.12506C16.3745 6.12506 14.276 6.98548 12.7289 8.51702C11.1817 10.0486 10.3125 12.1258 10.3125 14.2917C10.3125 16.4577 11.1817 18.5349 12.7289 20.0664C14.276 21.598 16.3745 22.4584 18.5625 22.4584C20.7505 22.4584 22.849 21.598 24.3961 20.0664C25.9433 18.5349 26.8125 16.4577 26.8125 14.2917C26.8125 12.1258 25.9433 10.0486 24.3961 8.51702C22.849 6.98548 20.7505 6.12506 18.5625 6.12506Z" fill="black"/>
</svg>
