<svg width="60" height="45" viewBox="0 0 60 45" fill="none" xmlns="http://www.w3.org/2000/svg">
<path d="M25.7843 11.3385C25.5035 11.136 25.173 11.0158 24.8292 10.9908C24.4853 10.9659 24.1413 11.0373 23.8349 11.1971C23.5284 11.357 23.2713 11.5992 23.0918 11.8971C22.9122 12.1951 22.8171 12.5373 22.8169 12.8864V31.9024C22.8171 32.2515 22.9122 32.5937 23.0918 32.8917C23.2713 33.1897 23.5284 33.4319 23.8349 33.5917C24.1413 33.7516 24.4853 33.8229 24.8292 33.798C25.173 33.7731 25.5035 33.6528 25.7843 33.4503L38.9311 23.9423C39.1746 23.7664 39.373 23.5342 39.5099 23.2649C39.6469 22.9957 39.7183 22.6972 39.7183 22.3944C39.7183 22.0916 39.6469 21.7931 39.5099 21.5239C39.373 21.2546 39.1746 21.0224 38.9311 20.8465L25.7843 11.3385Z" fill="black"/>
<path d="M0 7.46485C0 5.48506 0.790176 3.58637 2.1967 2.18645C3.60322 0.786527 5.51088 6.10352e-05 7.5 6.10352e-05H52.5C54.4891 6.10352e-05 56.3968 0.786527 57.8033 2.18645C59.2098 3.58637 60 5.48506 60 7.46485V37.324C60 39.3038 59.2098 41.2025 57.8033 42.6024C56.3968 44.0023 54.4891 44.7888 52.5 44.7888H7.5C5.51088 44.7888 3.60322 44.0023 2.1967 42.6024C0.790176 41.2025 0 39.3038 0 37.324V7.46485ZM56.25 7.46485C56.25 6.47496 55.8549 5.52561 55.1516 4.82565C54.4484 4.12569 53.4946 3.73246 52.5 3.73246H7.5C6.50544 3.73246 5.55161 4.12569 4.84835 4.82565C4.14509 5.52561 3.75 6.47496 3.75 7.46485V37.324C3.75 38.3139 4.14509 39.2632 4.84835 39.9632C5.55161 40.6632 6.50544 41.0564 7.5 41.0564H52.5C53.4946 41.0564 54.4484 40.6632 55.1516 39.9632C55.8549 39.2632 56.25 38.3139 56.25 37.324V7.46485Z" fill="black"/>
</svg>
